<?xml version="1.0" encoding="UTF-8" standalone="no"?>
<!-- Created with Inkscape (http://www.inkscape.org/) -->
<svg
   xmlns:dc="http://purl.org/dc/elements/1.1/"
   xmlns:cc="http://creativecommons.org/ns#"
   xmlns:rdf="http://www.w3.org/1999/02/22-rdf-syntax-ns#"
   xmlns:svg="http://www.w3.org/2000/svg"
   xmlns="http://www.w3.org/2000/svg"
   xmlns:sodipodi="http://sodipodi.sourceforge.net/DTD/sodipodi-0.dtd"
   xmlns:inkscape="http://www.inkscape.org/namespaces/inkscape"
   width="902.9306"
   height="792.20355"
   id="svg2"
   sodipodi:version="0.32"
   inkscape:version="0.46"
   sodipodi:docname="ehf-cover.svg"
   inkscape:output_extension="org.inkscape.output.svg.inkscape"
   version="1.0">
  <defs
     id="defs4">
    <inkscape:perspective
       sodipodi:type="inkscape:persp3d"
       inkscape:vp_x="0 : 526.18109 : 1"
       inkscape:vp_y="0 : 1000 : 0"
       inkscape:vp_z="744.09448 : 526.18109 : 1"
       inkscape:persp3d-origin="372.04724 : 350.78739 : 1"
       id="perspective10" />
    <clipPath
       id="clipPath2748"
       clipPathUnits="userSpaceOnUse">
      <path
         id="path2750"
         clip-rule="evenodd"
         d="M 0,7016.67 L 4958,7016.67 L 4958,0.667969 L 0,0.667969 L 0,7016.67 z" />
    </clipPath>
    <clipPath
       id="clipPath2736"
       clipPathUnits="userSpaceOnUse">
      <path
         id="path2738"
         d="M 472,6740.67 L 656,6740.67 L 656,6574.67 L 472,6574.67 L 472,6740.67 z" />
    </clipPath>
    <clipPath
       id="clipPath2724"
       clipPathUnits="userSpaceOnUse">
      <path
         id="path2726"
         d="M 591,6636.67 L 902,6636.67 L 902,6471.67 L 591,6471.67 L 591,6636.67 z" />
    </clipPath>
    <clipPath
       id="clipPath2710"
       clipPathUnits="userSpaceOnUse">
      <path
         id="path2712"
         d="M 759,6832.67 L 826,6832.67 L 826,6666.67 L 759,6666.67 L 759,6832.67 z" />
    </clipPath>
    <clipPath
       id="clipPath2626"
       clipPathUnits="userSpaceOnUse">
      <path
         id="path2628"
         d="M 473,6704.67 L 632,6704.67 L 632,6560.67 L 473,6560.67 L 473,6704.67 z" />
    </clipPath>
    <clipPath
       id="clipPath2614"
       clipPathUnits="userSpaceOnUse">
      <path
         id="path2616"
         d="M 576,6614.67 L 843,6614.67 L 843,6471.67 L 576,6471.67 L 576,6614.67 z" />
    </clipPath>
    <clipPath
       id="clipPath2590"
       clipPathUnits="userSpaceOnUse">
      <path
         id="path2592"
         clip-rule="evenodd"
         d="M 0,7016.67 L 4958,7016.67 L 4958,0.667969 L 0,0.667969 L 0,7016.67 z" />
    </clipPath>
    <clipPath
       id="clipPath2570"
       clipPathUnits="userSpaceOnUse">
      <path
         id="path2572"
         d="M 449,6850.67 L 1100,6850.67 L 1100,6198.67 L 449,6198.67 L 449,6850.67 z" />
    </clipPath>
    <clipPath
       id="clipPath2558"
       clipPathUnits="userSpaceOnUse">
      <path
         id="path2560"
         d="M 472,6740.67 L 657,6740.67 L 657,6574.67 L 472,6574.67 L 472,6740.67 z" />
    </clipPath>
    <clipPath
       id="clipPath2546"
       clipPathUnits="userSpaceOnUse">
      <path
         id="path2548"
         d="M 590,6634.67 L 903,6634.67 L 903,6470.67 L 590,6470.67 L 590,6634.67 z" />
    </clipPath>
    <clipPath
       id="clipPath2532"
       clipPathUnits="userSpaceOnUse">
      <path
         id="path2534"
         d="M 759,6832.67 L 827,6832.67 L 827,6666.67 L 759,6666.67 L 759,6832.67 z" />
    </clipPath>
    <clipPath
       id="clipPath2488"
       clipPathUnits="userSpaceOnUse">
      <path
         id="path2490"
         d="M 473,6704.67 L 633,6704.67 L 633,6560.67 L 473,6560.67 L 473,6704.67 z" />
    </clipPath>
    <clipPath
       id="clipPath2476"
       clipPathUnits="userSpaceOnUse">
      <path
         id="path2478"
         d="M 576,6614.67 L 847,6614.67 L 847,6471.67 L 576,6471.67 L 576,6614.67 z" />
    </clipPath>
    <inkscape:perspective
       id="perspective2410"
       inkscape:persp3d-origin="372.04724 : 350.78739 : 1"
       inkscape:vp_z="744.09448 : 526.18109 : 1"
       inkscape:vp_y="0 : 1000 : 0"
       inkscape:vp_x="0 : 526.18109 : 1"
       sodipodi:type="inkscape:persp3d" />
  </defs>
  <sodipodi:namedview
     id="base"
     pagecolor="#ffffff"
     bordercolor="#666666"
     borderopacity="1.0"
     inkscape:pageopacity="0.0"
     inkscape:pageshadow="2"
     inkscape:zoom="2.9982363"
     inkscape:cx="71.539014"
     inkscape:cy="724.24282"
     inkscape:document-units="px"
     inkscape:current-layer="layer1"
     showgrid="false"
     inkscape:window-width="1179"
     inkscape:window-height="836"
     inkscape:window-x="137"
     inkscape:window-y="75" />
  <metadata
     id="metadata7">
    <rdf:RDF>
      <cc:Work
         rdf:about="">
        <dc:format>image/svg+xml</dc:format>
        <dc:type
           rdf:resource="http://purl.org/dc/dcmitype/StillImage" />
      </cc:Work>
    </rdf:RDF>
  </metadata>
  <g
     transform="matrix(0.9,0,0,0.9,138.24241,-16.14978)"
     inkscape:label="Ebene 1"
     inkscape:groupmode="layer"
     id="layer1">
    <path
       id="path2470"
       style="fill:#7a7b7d;fill-opacity:1;fill-rule:evenodd;stroke:none"
       d="M -9.7214098,60.566422 C -9.1214098,60.566422 -9.1214098,60.566422 -9.1214098,60.566422 C -8.9714098,60.566422 -8.6714098,60.566422 -8.6714098,61.016422 C -8.6714098,61.316422 -8.9714098,61.316422 -9.1214098,61.316422 C -9.7214098,61.316422 -9.7214098,61.316422 -9.7214098,61.316422 C -9.7214098,60.566422 -9.7214098,60.566422 -9.7214098,60.566422 z M -9.7214098,61.616422 C -9.1214098,61.616422 -9.1214098,61.616422 -9.1214098,61.616422 C -8.6714098,62.816422 -8.6714098,62.816422 -8.6714098,62.816422 C -8.0714098,62.816422 -8.0714098,62.816422 -8.0714098,62.816422 C -8.8214098,61.616422 -8.8214098,61.616422 -8.8214098,61.616422 C -8.3714098,61.466422 -8.2214098,61.316422 -8.2214098,61.016422 C -8.2214098,60.266422 -8.6714098,60.266422 -9.1214098,60.266422 C -10.17141,60.266422 -10.17141,60.266422 -10.17141,60.266422 C -10.17141,62.816422 -10.17141,62.816422 -10.17141,62.816422 C -9.7214098,62.816422 -9.7214098,62.816422 -9.7214098,62.816422 C -9.7214098,61.616422 -9.7214098,61.616422 -9.7214098,61.616422 z M -7.0214096,61.466422 C -7.0214096,60.266422 -8.0714098,59.366422 -9.1214098,59.366422 C -10.47141,59.366422 -11.52141,60.266422 -11.52141,61.466422 C -11.52141,62.816422 -10.47141,63.716422 -9.1214098,63.716422 C -8.0714098,63.716422 -7.0214096,62.816422 -7.0214096,61.466422 z M -11.07141,61.466422 C -11.07141,60.566422 -10.32141,59.666422 -9.1214098,59.666422 C -8.2214098,59.666422 -7.4714096,60.566422 -7.4714096,61.466422 C -7.4714096,62.516422 -8.2214098,63.416422 -9.1214098,63.416422 C -10.32141,63.416422 -11.07141,62.516422 -11.07141,61.466422" />
    <g
       id="g2528"
       transform="matrix(0.15,0,0,-0.15,-180.42138,1074.8169)">
      <g
         id="g2530">
        <path
           id="path2536"
           style="fill:#7a7b7d;fill-opacity:1;fill-rule:evenodd;stroke:none"
           d="M 784,6781.67 C 759,6668.67 759,6668.67 759,6668.67 C 790,6668.67 790,6668.67 790,6668.67 C 815,6785.67 815,6785.67 815,6785.67 C 784,6781.67 784,6781.67 784,6781.67 z M 806,6833.67 C 796,6833.67 787,6825.67 787,6814.67 C 787,6804.67 796,6796.67 806,6796.67 C 816,6796.67 825,6804.67 825,6814.67 C 825,6825.67 817,6833.67 806,6833.67" />
      </g>
    </g>
    <path
       id="path2538"
       style="fill:#7a7b7d;fill-opacity:1;fill-rule:nonzero;stroke:none"
       d="M -42.721413,58.766422 C -43.921413,57.416422 -45.721413,56.816422 -47.371413,56.816422 C -49.771413,56.816422 -51.421412,57.416422 -53.071412,58.766422 C -55.471412,60.866422 -57.421412,64.766422 -57.421412,69.116422 C -57.421412,72.716422 -55.471412,75.116422 -51.421412,75.116422 C -49.021413,75.116422 -46.921413,74.216422 -45.271413,72.716422 C -46.771413,69.866422 -46.771413,69.866422 -46.771413,69.866422 C -47.971413,70.916422 -49.171413,71.666422 -50.521412,71.666422 C -51.721412,71.666422 -52.621412,70.916422 -52.621412,69.116422 C -52.621412,66.416422 -51.271412,62.816422 -50.071412,61.316422 C -49.621413,60.716422 -48.721413,60.416422 -47.971413,60.416422 C -47.071413,60.416422 -46.171413,60.866422 -45.421413,61.616422 C -42.721413,58.766422 -42.721413,58.766422 -42.721413,58.766422" />
    <path
       id="path2540"
       style="fill:#7a7b7d;fill-opacity:1;fill-rule:nonzero;stroke:none"
       d="M -40.921413,57.566422 C -39.871413,74.516422 -39.871413,74.516422 -39.871413,74.516422 C -35.671414,74.516422 -35.671414,74.516422 -35.671414,74.516422 C -34.021412,71.066422 -34.021412,71.066422 -34.021412,71.066422 C -33.271412,69.416422 -31.921412,66.416422 -31.171412,64.916422 C -30.721412,63.716422 -30.571412,63.416422 -30.421412,62.816422 C -30.421412,63.416422 -30.421412,63.716422 -30.571412,64.466422 C -30.571412,65.666422 -30.571412,67.166422 -30.421412,68.666422 C -30.121412,74.516422 -30.121412,74.516422 -30.121412,74.516422 C -25.921412,74.516422 -25.921412,74.516422 -25.921412,74.516422 C -17.371412,57.266422 -17.371412,57.266422 -17.371412,57.266422 C -21.871412,57.266422 -21.871412,57.266422 -21.871412,57.266422 C -24.721412,63.416422 -24.721412,63.416422 -24.721412,63.416422 C -25.621412,65.666422 -26.521412,68.516422 -26.821412,69.116422 C -26.821412,69.116422 -26.671412,66.266422 -26.821412,62.966422 C -26.971412,57.266422 -26.971412,57.266422 -26.971412,57.266422 C -31.171412,57.266422 -31.171412,57.266422 -31.171412,57.266422 C -34.021412,63.116422 -34.021412,63.116422 -34.021412,63.116422 C -35.521412,65.966422 -36.571414,69.116422 -36.571414,69.116422 C -36.571414,69.116422 -36.421414,65.666422 -36.421414,63.716422 C -36.421414,57.116422 -36.421414,57.116422 -36.421414,57.116422 C -40.921413,57.566422 -40.921413,57.566422 -40.921413,57.566422" />
    <path
       id="path2552"
       style="fill:#00963f;fill-opacity:1;fill-rule:nonzero;stroke:none"
       d="M -71.521414,68.816422 C -71.371414,68.816422 -71.371414,68.966422 -71.371414,69.116422 C -78.871414,74.666422 -78.871414,74.666422 -78.871414,74.666422 C -79.021414,74.816422 -79.021414,74.816422 -79.021414,74.666422 C -100.92142,62.366422 -100.92142,62.366422 -100.92142,62.366422 C -100.92142,62.216422 -100.92142,62.066422 -100.92142,62.066422 C -93.571414,61.016422 -82.471418,63.266422 -71.521414,68.816422" />
    <g
       id="g2554"
       transform="matrix(0.15,0,0,-0.15,-180.42138,1074.8169)">
      <g
         id="g2556">
        <path
           id="path2562"
           style="fill:#00963f;fill-opacity:1;fill-rule:nonzero;stroke:none"
           d="M 476,6719.67 C 480,6728.67 487,6735.67 496,6740.67 L 497,6740.67 C 654,6651.67 654,6651.67 654,6651.67 C 655,6650.67 655,6649.67 654,6649.67 C 557,6575.67 557,6575.67 557,6575.67 L 556,6575.67 C 491,6626.67 457,6683.67 476,6719.67" />
      </g>
    </g>
    <path
       id="path2594"
       style="fill:none;stroke:#969696;stroke-width:1.56250501;stroke-linecap:butt;stroke-linejoin:round;stroke-miterlimit:10;stroke-dasharray:none;stroke-opacity:1"
       d="M 619.22864,287.06642 C 543.32864,160.46642 318.32864,163.31642 190.82864,197.96642 C 63.328606,232.61642 -188.97138,377.06642 -254.07137,416.96642" />
    <path
       id="path2596"
       style="fill:none;stroke:#969696;stroke-width:0.9375;stroke-linecap:round;stroke-linejoin:round;stroke-miterlimit:10;stroke-dasharray:none;stroke-opacity:1"
       d="M 571.22864,110.66642 C 460.67864,76.916422 242.42864,132.11642 77.428618,236.21642 C -87.571418,340.31642 -194.52137,462.26642 -245.97137,518.81642" />
    <path
       id="path2598"
       style="fill:none;stroke:#0061af;stroke-width:1.24999499;stroke-linecap:butt;stroke-linejoin:round;stroke-miterlimit:10;stroke-dasharray:none;stroke-opacity:1"
       d="M 669.02864,644.12216 L 646.52864,662.57216 L 623.27864,680.42216 L 575.27864,714.77216 L 550.22864,731.12216 L 537.47864,739.07216 L 524.87864,746.87246 L 499.22864,762.17246 L 486.32864,769.52246 L 473.27864,776.87246 L 446.87864,790.97246 L 433.67864,797.72246 L 420.47864,804.32246 L 393.62864,817.07246 L 380.12864,823.22246 L 366.47864,829.07246 L 339.47864,840.47248 L 312.47864,851.42258 L 285.47864,861.17266 L 258.32864,870.32274 L 231.47864,878.72282 L 204.77864,886.37288 L 178.37864,892.82294 L 165.02864,895.82298 L 151.82864,898.973 L 125.87864,903.92304 C 117.17864,905.57306 106.52864,907.07308 100.22864,907.97308 L 87.628628,909.6231 L 75.028616,911.12312 L 50.428596,913.52314 L 38.128596,914.27314 L 26.128594,914.87314 L 2.4285912,915.32314 L -9.2714098,915.02314 L -20.671412,914.42314 L -43.171413,912.77312 L -64.921414,910.2231 L -85.771418,906.47306 L -106.02141,901.37302 L -115.9214,898.973 L -125.3714,895.82298" />
    <path
       id="path2600"
       style="fill:none;stroke:#747378;stroke-width:1.875;stroke-linecap:butt;stroke-linejoin:round;stroke-miterlimit:10;stroke-dasharray:none;stroke-opacity:1"
       d="M 611.87864,721.22216 L 587.12864,733.22216 L 561.77864,744.47246 L 509.27864,766.07246 L 482.12864,776.12246 L 468.32864,780.77246 L 454.52864,785.57246 L 426.77864,794.57246 L 412.67864,798.77246 L 398.57864,803.12246 L 369.92864,811.07246 L 355.67864,814.97246 L 341.27864,818.42246 L 312.47864,825.47246 L 297.92864,828.62246 L 283.07864,831.77246 L 254.12864,837.47246 L 225.02864,842.8725 L 196.07864,847.37254 L 166.97864,851.42258 L 138.17864,854.8726 L 109.67864,857.72262 L 81.328622,859.67264 L 67.22861,860.42266 L 53.128596,861.32266 L 25.378594,862.22268 C 16.228594,862.37268 4.8285914,862.37268 -1.7714092,862.37268 L -15.271412,862.22268 L -28.621412,861.77266 L -54.721412,860.72266 L -67.621414,859.82264 L -80.371418,858.92264 L -105.42141,856.37262 L -117.7214,854.7226 L -129.72139,852.92258 L -153.27138,848.87254 L -176.07138,844.2225 L -197.97137,838.82246 L -218.97137,832.37246 L -229.32137,829.22246 L -239.07137,825.62246" />
    <path
       id="path2674"
       style="fill:#7a7b7d;fill-opacity:1;fill-rule:evenodd;stroke:none"
       d="M -52.171412,86.666418 C -52.771412,87.116418 -53.371412,87.266418 -54.121412,87.266418 C -55.021412,87.266418 -55.621412,86.816418 -55.621412,85.616418 L -55.621412,85.616418 C -51.271412,85.616418 -51.271412,85.616418 -51.271412,85.616418 C -51.271412,85.466418 -51.271412,85.316418 -51.271412,85.166418 C -51.271412,83.666418 -51.721412,82.766418 -52.321412,82.016418 C -52.771412,81.566418 -53.671412,81.266418 -54.421412,81.266418 C -55.471412,81.266418 -56.071412,81.566418 -56.671412,82.166418 C -57.271412,82.916418 -57.571412,83.816418 -57.571412,85.016418 C -57.571412,87.266418 -56.221412,88.616418 -54.121412,88.616418 C -53.221412,88.616418 -52.321412,88.466418 -51.421412,87.716418 C -52.171412,86.666418 -52.171412,86.666418 -52.171412,86.666418 z M -55.621412,84.266418 L -55.621412,84.266418 C -55.621412,83.216418 -55.171412,82.616418 -54.271412,82.616418 C -54.121412,82.616418 -53.821412,82.766418 -53.521412,83.066418 C -53.371412,83.216418 -53.371412,83.516418 -53.371412,84.116418 C -53.371412,84.266418 -53.371412,84.266418 -53.371412,84.266418 C -55.621412,84.266418 -55.621412,84.266418 -55.621412,84.266418" />
    <path
       id="path2676"
       style="fill:#7a7b7d;fill-opacity:1;fill-rule:nonzero;stroke:none"
       d="M -49.921413,78.866418 L -49.921413,88.616418 L -48.121413,88.616418 L -48.121413,84.266418 L -45.271413,84.266418 L -45.271413,88.616418 L -43.321413,88.616418 L -43.321413,78.866418 L -45.271413,78.866418 L -45.271413,82.616418 L -48.121413,82.616418 L -48.121413,78.866418 L -49.921413,78.866418 L -49.921413,78.866418" />
    <path
       id="path2678"
       style="fill:#7a7b7d;fill-opacity:1;fill-rule:nonzero;stroke:none"
       d="M -41.371413,78.866418 L -41.371413,88.616418 L -35.671414,88.616418 L -35.671414,86.966418 L -39.271413,86.966418 L -39.271413,84.416418 L -36.571414,84.416418 L -36.571414,82.766418 L -39.271413,82.766418 L -39.271413,80.366418 L -35.971414,80.366418 L -35.671414,78.866418 L -41.371413,78.866418 L -41.371413,78.866418" />
    <path
       id="path2680"
       style="fill:#7a7b7d;fill-opacity:1;fill-rule:evenodd;stroke:none"
       d="M -31.921412,78.866418 C -35.221412,88.616418 -35.221412,88.616418 -35.221412,88.616418 C -33.121412,88.616418 -33.121412,88.616418 -33.121412,88.616418 C -32.521412,86.216418 -32.521412,86.216418 -32.521412,86.216418 C -29.671412,86.216418 -29.671412,86.216418 -29.671412,86.216418 C -28.771412,88.616418 -28.771412,88.616418 -28.771412,88.616418 C -26.821412,88.616418 -26.821412,88.616418 -26.821412,88.616418 C -29.971412,78.866418 -29.971412,78.866418 -29.971412,78.866418 C -31.921412,78.866418 -31.921412,78.866418 -31.921412,78.866418 z M -31.921412,84.566418 C -31.621412,83.966418 -31.621412,83.516418 -31.471412,82.916418 C -31.321412,82.016418 -31.021412,80.966418 -31.021412,80.966418 C -31.021412,80.966418 -30.721412,82.166418 -30.571412,82.766418 C -30.271412,83.666418 -29.971412,84.566418 -29.971412,84.566418 C -31.921412,84.566418 -31.921412,84.566418 -31.921412,84.566418" />
    <path
       id="path2682"
       style="fill:#7a7b7d;fill-opacity:1;fill-rule:nonzero;stroke:none"
       d="M -25.921412,78.866418 L -25.921412,88.616418 L -20.821412,88.616418 L -20.521412,86.966418 L -24.121412,86.966418 L -24.121412,78.866418 L -25.921412,78.866418 L -25.921412,78.866418" />
    <path
       id="path2684"
       style="fill:#7a7b7d;fill-opacity:1;fill-rule:nonzero;stroke:none"
       d="M -21.571412,78.866418 L -21.571412,80.366418 L -19.321412,80.366418 L -19.321412,88.616418 L -17.221412,88.616418 L -17.221412,80.366418 L -14.971412,80.366418 L -14.671412,78.866418 L -21.571412,78.866418 L -21.571412,78.866418" />
    <path
       id="path2686"
       style="fill:#7a7b7d;fill-opacity:1;fill-rule:nonzero;stroke:none"
       d="M -13.771412,78.866418 L -13.771412,88.616418 L -11.67141,88.616418 L -11.67141,84.266418 L -8.9714098,84.266418 L -8.9714098,88.616418 L -7.0214096,88.616418 L -7.0214096,78.866418 L -8.9714098,78.866418 L -8.9714098,82.616418 L -11.67141,82.616418 L -11.67141,78.866418 L -13.771412,78.866418 L -13.771412,78.866418" />
    <path
       id="path2688"
       style="fill:#7a7b7d;fill-opacity:1;fill-rule:nonzero;stroke:none"
       d="M -2.0714092,78.866418 L -2.0714092,88.616418 L -0.12140898,88.616418 L -0.12140898,84.266418 L 2.4285912,84.266418 L 2.4285912,82.616418 L -0.12140898,82.616418 L -0.12140898,80.366418 L 2.8785912,80.366418 L 3.1785912,78.866418 L -2.0714092,78.866418 L -2.0714092,78.866418" />
    <path
       id="path2690"
       style="fill:#7a7b7d;fill-opacity:1;fill-rule:evenodd;stroke:none"
       d="M 4.2285914,78.866418 C 4.2285914,88.616418 4.2285914,88.616418 4.2285914,88.616418 C 6.1785916,88.616418 6.1785916,88.616418 6.1785916,88.616418 C 6.1785916,84.566418 6.1785916,84.566418 6.1785916,84.566418 C 6.3285916,84.566418 6.3285916,84.566418 6.4785916,84.566418 C 6.9285916,84.716418 7.0785916,85.166418 8.1285918,86.966418 C 8.4285918,87.566418 8.5785918,87.866418 8.8785918,88.616418 C 11.128594,88.616418 11.128594,88.616418 11.128594,88.616418 C 11.128594,88.616418 9.4785938,85.466418 8.8785918,84.716418 C 8.7285918,84.566418 8.7285918,84.566418 8.4285918,84.416418 C 9.7785938,84.416418 10.678594,83.216418 10.678594,81.716418 C 10.678594,80.066418 9.6285938,78.866418 7.8285918,78.866418 C 4.2285914,78.866418 4.2285914,78.866418 4.2285914,78.866418 z M 6.1785916,80.366418 C 6.9285916,80.366418 6.9285916,80.366418 6.9285916,80.366418 C 7.2285916,80.366418 7.6785916,80.366418 7.9785918,80.516418 C 8.2785918,80.666418 8.5785918,81.116418 8.5785918,81.716418 C 8.5785918,82.166418 8.4285918,82.466418 8.2785918,82.766418 C 7.9785918,83.066418 7.6785916,83.066418 6.9285916,83.066418 C 6.1785916,83.066418 6.1785916,83.066418 6.1785916,83.066418 C 6.1785916,80.366418 6.1785916,80.366418 6.1785916,80.366418" />
    <path
       id="path2692"
       style="fill:#7a7b7d;fill-opacity:1;fill-rule:evenodd;stroke:none"
       d="M 14.278594,78.866418 C 11.128594,88.616418 11.128594,88.616418 11.128594,88.616418 C 13.078594,88.616418 13.078594,88.616418 13.078594,88.616418 C 13.828594,86.216418 13.828594,86.216418 13.828594,86.216418 C 16.678594,86.216418 16.678594,86.216418 16.678594,86.216418 C 17.278594,88.616418 17.278594,88.616418 17.278594,88.616418 C 19.528594,88.616418 19.528594,88.616418 19.528594,88.616418 C 16.378594,78.866418 16.378594,78.866418 16.378594,78.866418 C 14.278594,78.866418 14.278594,78.866418 14.278594,78.866418 z M 14.278594,84.566418 C 14.428594,83.966418 14.578594,83.516418 14.878594,82.916418 C 15.028594,82.016418 15.328594,80.966418 15.328594,80.966418 C 15.328594,80.966418 15.478594,82.166418 15.628594,82.766418 C 15.928594,83.666418 16.228594,84.566418 16.228594,84.566418 C 14.278594,84.566418 14.278594,84.566418 14.278594,84.566418" />
    <path
       id="path2694"
       style="fill:#7a7b7d;fill-opacity:1;fill-rule:nonzero;stroke:none"
       d="M 20.878594,78.866418 C 19.978594,88.616418 19.978594,88.616418 19.978594,88.616418 C 21.928594,88.616418 21.928594,88.616418 21.928594,88.616418 C 22.228594,83.516418 22.228594,83.516418 22.228594,83.516418 C 22.378594,82.916418 22.378594,82.316418 22.378594,81.716418 C 22.528594,82.316418 22.528594,83.066418 22.678594,83.366418 C 24.028594,88.616418 24.028594,88.616418 24.028594,88.616418 C 25.678594,88.616418 25.678594,88.616418 25.678594,88.616418 C 27.178594,83.216418 27.178594,83.216418 27.178594,83.216418 C 27.478594,82.766418 27.478594,82.316418 27.628594,81.716418 C 27.628594,82.316418 27.628594,82.766418 27.778594,83.366418 C 28.078594,88.616418 28.078594,88.616418 28.078594,88.616418 C 29.878594,88.616418 29.878594,88.616418 29.878594,88.616418 C 29.128594,78.866418 29.128594,78.866418 29.128594,78.866418 C 26.728594,78.866418 26.728594,78.866418 26.728594,78.866418 C 25.378594,83.666418 25.378594,83.666418 25.378594,83.666418 C 25.228594,84.266418 25.078594,84.716418 24.928594,85.316418 C 24.928594,84.716418 24.778594,84.416418 24.628594,83.666418 C 23.428594,78.866418 23.428594,78.866418 23.428594,78.866418 C 20.878594,78.866418 20.878594,78.866418 20.878594,78.866418" />
    <path
       id="path2696"
       style="fill:#7a7b7d;fill-opacity:1;fill-rule:nonzero;stroke:none"
       d="M 31.828596,78.866418 L 31.828596,88.616418 L 37.378596,88.616418 L 37.378596,86.966418 L 33.778596,86.966418 L 33.778596,84.416418 L 36.628596,84.416418 L 36.628596,82.766418 L 33.778596,82.766418 L 33.778596,80.366418 L 37.078596,80.366418 L 37.228596,78.866418 L 31.828596,78.866418 L 31.828596,78.866418" />
    <path
       id="path2698"
       style="fill:#7a7b7d;fill-opacity:1;fill-rule:nonzero;stroke:none"
       d="M 37.978596,78.866418 C 40.228596,88.616418 40.228596,88.616418 40.228596,88.616418 C 42.478596,88.616418 42.478596,88.616418 42.478596,88.616418 C 43.378596,84.566418 43.378596,84.566418 43.378596,84.566418 C 43.678596,83.216418 43.828596,81.866418 43.828596,81.866418 C 43.828596,82.166418 43.828596,83.366418 44.278596,84.716418 C 45.178596,88.616418 45.178596,88.616418 45.178596,88.616418 C 47.278596,88.616418 47.278596,88.616418 47.278596,88.616418 C 49.528596,78.866418 49.528596,78.866418 49.528596,78.866418 C 47.578596,78.866418 47.578596,78.866418 47.578596,78.866418 C 46.678596,82.616418 46.678596,82.616418 46.678596,82.616418 C 46.678596,83.516418 46.228596,85.466418 46.228596,85.766418 C 46.228596,85.766418 45.928596,84.116418 45.778596,83.216418 C 44.878596,78.866418 44.878596,78.866418 44.878596,78.866418 C 42.778596,78.866418 42.778596,78.866418 42.778596,78.866418 C 41.878596,82.766418 41.878596,82.766418 41.878596,82.766418 C 41.578596,84.116418 41.428596,85.466418 41.428596,85.916418 C 41.428596,85.916418 41.278596,84.566418 40.978596,82.766418 C 40.078596,78.866418 40.078596,78.866418 40.078596,78.866418 C 37.978596,78.866418 37.978596,78.866418 37.978596,78.866418" />
    <path
       id="path2700"
       style="fill:#7a7b7d;fill-opacity:1;fill-rule:evenodd;stroke:none"
       d="M 53.878598,78.866418 C 53.128596,78.866418 52.378596,79.016418 51.928596,79.166418 C 50.428596,80.066418 49.678596,81.716418 49.678596,83.816418 C 49.678596,85.166418 49.978596,86.366418 50.878596,87.266418 C 51.478596,88.316418 52.378596,88.616418 53.878598,88.616418 C 54.778598,88.616418 55.228598,88.616418 55.8286,88.316418 C 57.3286,87.416418 58.078602,85.916418 58.078602,83.666418 C 58.078602,80.516418 56.5786,78.866418 53.878598,78.866418 z M 53.878598,80.366418 C 54.928598,80.366418 55.378598,80.966418 55.528598,81.566418 C 55.6786,82.016418 55.8286,82.766418 55.8286,83.666418 C 55.8286,86.216418 55.228598,87.266418 53.878598,87.266418 C 53.428598,87.266418 52.978596,87.116418 52.678596,86.966418 C 52.228596,86.516418 51.928596,85.466418 51.928596,83.816418 C 51.928596,82.616418 52.078596,81.716418 52.378596,81.116418 C 52.528596,80.516418 53.128596,80.366418 53.878598,80.366418" />
    <path
       id="path2702"
       style="fill:#7a7b7d;fill-opacity:1;fill-rule:evenodd;stroke:none"
       d="M 59.428602,78.866418 C 59.428602,88.616418 59.428602,88.616418 59.428602,88.616418 C 61.228604,88.616418 61.228604,88.616418 61.228604,88.616418 C 61.228604,84.566418 61.228604,84.566418 61.228604,84.566418 C 61.378604,84.566418 61.528604,84.566418 61.528604,84.566418 C 61.978604,84.716418 62.278606,85.166418 63.178606,86.966418 C 63.628606,87.566418 63.778606,87.866418 64.078606,88.616418 C 66.478608,88.616418 66.478608,88.616418 66.478608,88.616418 C 66.478608,88.616418 64.678608,85.466418 64.078606,84.716418 C 63.928606,84.566418 63.778606,84.566418 63.778606,84.416418 C 64.978608,84.416418 65.878608,83.216418 65.878608,81.716418 C 65.878608,80.066418 64.678608,78.866418 63.028606,78.866418 C 59.428602,78.866418 59.428602,78.866418 59.428602,78.866418 z M 61.228604,80.366418 C 61.978604,80.366418 61.978604,80.366418 61.978604,80.366418 C 62.428606,80.366418 62.878606,80.366418 63.028606,80.516418 C 63.628606,80.666418 63.778606,81.116418 63.778606,81.716418 C 63.778606,82.166418 63.778606,82.466418 63.478606,82.766418 C 63.178606,83.066418 62.728606,83.066418 61.978604,83.066418 C 61.228604,83.066418 61.228604,83.066418 61.228604,83.066418 C 61.228604,80.366418 61.228604,80.366418 61.228604,80.366418" />
    <path
       id="path2704"
       style="fill:#7a7b7d;fill-opacity:1;fill-rule:nonzero;stroke:none"
       d="M 67.52861,78.866418 L 67.52861,88.616418 L 69.478612,88.616418 L 69.478612,83.516418 L 72.478614,88.616418 L 75.178616,88.616418 L 71.578614,83.366418 L 74.728616,78.866418 L 72.328614,78.866418 L 69.478612,83.216418 L 69.478612,78.866418 L 67.52861,78.866418 L 67.52861,78.866418" />
    <g
       id="g2706"
       transform="matrix(0.15,0,0,-0.15,-180.42138,1074.8169)">
      <g
         id="g2708">
        <path
           id="path2714"
           style="fill:#7a7b7d;fill-opacity:1;fill-rule:evenodd;stroke:none"
           d="M 784,6781.67 C 759,6668.67 759,6668.67 759,6668.67 C 789,6668.67 789,6668.67 789,6668.67 C 814,6786.67 814,6786.67 814,6786.67 C 784,6781.67 784,6781.67 784,6781.67 z M 806,6833.67 C 795,6833.67 787,6825.67 787,6815.67 C 787,6804.67 795,6796.67 805,6796.67 C 816,6796.67 824,6804.67 824,6815.67 C 824,6825.67 816,6833.67 806,6833.67" />
      </g>
    </g>
    <path
       id="path2716"
       style="fill:#7a7b7d;fill-opacity:1;fill-rule:nonzero;stroke:none"
       d="M -42.871413,58.766422 C -44.221413,57.416422 -45.871413,56.816422 -47.521413,56.816422 C -49.921413,56.816422 -51.571412,57.416422 -53.071412,58.766422 C -55.621412,60.866422 -57.571412,64.766422 -57.571412,69.116422 C -57.571412,72.716422 -55.471412,74.966422 -51.571412,74.966422 C -49.021413,74.966422 -47.071413,74.066422 -45.271413,72.716422 C -46.771413,69.866422 -46.771413,69.866422 -46.771413,69.866422 C -48.121413,70.766422 -49.321413,71.666422 -50.521412,71.666422 C -51.721412,71.666422 -52.621412,70.766422 -52.621412,69.116422 C -52.621412,66.416422 -51.421412,62.816422 -50.221412,61.316422 C -49.621413,60.716422 -48.871413,60.416422 -48.121413,60.416422 C -47.221413,60.416422 -46.321413,60.866422 -45.571413,61.616422 C -42.871413,58.766422 -42.871413,58.766422 -42.871413,58.766422" />
    <g
       id="g2720"
       transform="matrix(0.15,0,0,-0.15,-180.42138,1074.8169)">
      <g
         clip-path="url(#clipPath2724)"
         id="g2722">
        <path
           id="path2728"
           style="fill:#0064ae;fill-opacity:1;fill-rule:nonzero;stroke:none"
           d="M 591,6551.67 C 591,6552.67 591,6552.67 591,6553.67 C 680,6635.67 680,6635.67 680,6635.67 C 680,6635.67 681,6636.67 681,6635.67 C 898,6510.67 898,6510.67 898,6510.67 C 900,6509.67 898,6507.67 898,6506.67 C 872,6455.67 756,6463.67 641,6523.67 C 624,6531.67 606,6541.67 591,6551.67" />
      </g>
    </g>
    <path
       id="path2730"
       style="fill:#0064ae;fill-opacity:1;fill-rule:nonzero;stroke:none"
       d="M -71.371414,68.666422 C -71.221414,68.816422 -71.221414,68.966422 -71.371414,68.966422 C -78.871414,74.666422 -78.871414,74.666422 -78.871414,74.666422 L -79.021414,74.666422 C -100.92142,62.366422 -100.92142,62.366422 -100.92142,62.366422 C -101.07142,62.216422 -101.07142,62.066422 -100.92142,62.066422 C -93.421414,61.016422 -82.621418,63.266422 -71.371414,68.666422" />
    <g
       id="g2732"
       transform="matrix(0.15,0,0,-0.15,-180.42138,1074.8169)">
      <g
         id="g2734">
        <path
           id="path2740"
           style="fill:#0064ae;fill-opacity:1;fill-rule:nonzero;stroke:none"
           d="M 476,6721.67 C 481,6729.67 487,6735.67 496,6740.67 L 497,6740.67 C 653,6651.67 653,6651.67 653,6651.67 C 654,6650.67 654,6650.67 653,6649.67 C 557,6576.67 557,6576.67 557,6576.67 C 557,6576.67 557,6576.67 556,6576.67 C 491,6627.67 457,6684.67 476,6721.67" />
      </g>
    </g>
    <g
       transform="matrix(1.2499995,0,0,-1.2499995,-0.4214243,1052.5947)"
       id="g2742" />
    <path
       id="path2752"
       style="fill:none;stroke:#0061af;stroke-width:3.75;stroke-linecap:butt;stroke-linejoin:round;stroke-miterlimit:10;stroke-dasharray:none;stroke-opacity:1"
       d="M 578.42864,68.216422 C 423.77864,26.966422 192.17864,96.266418 31.828596,193.76642 C -128.3714,291.26642 -242.37137,417.41642 -293.82136,473.96642" />
    <path
       id="path2754"
       style="fill:none;stroke:#969696;stroke-width:1.56250501;stroke-linecap:butt;stroke-linejoin:round;stroke-miterlimit:10;stroke-dasharray:none;stroke-opacity:1"
       d="M 595.82864,112.61642 C 520.82864,28.616422 263.12864,39.116422 33.628596,169.91642 C -195.87137,300.71642 -281.37136,403.91642 -332.82136,461.36642" />
    <g
       transform="matrix(1.2499995,0,0,-1.2499995,-0.4214243,1052.5947)"
       id="g2756" />
  </g>
</svg>
